<?xml version="1.0" encoding="UTF-8" standalone="no"?>
<svg width="18px" height="18px" viewBox="0 0 18 18" version="1.1" xmlns="http://www.w3.org/2000/svg" xmlns:xlink="http://www.w3.org/1999/xlink" xmlns:sketch="http://www.bohemiancoding.com/sketch/ns">
    <!-- Generator: Sketch 3.4.1 (15681) - http://www.bohemiancoding.com/sketch -->
    <title>Slice 14</title>
    <desc>Created with Sketch.</desc>
    <defs></defs>
    <g id="Page-1" stroke="none" stroke-width="1" fill="none" fill-rule="evenodd" sketch:type="MSPage">
        <g id="最近收听" sketch:type="MSLayerGroup" transform="translate(-46.000000, 1.000000)" fill="#8f8e94">
            <path d="M58.5836023,10.941898 L58.3305358,10.6978696 C59.2162686,9.66752744 59.7495158,8.32989025 59.7495158,6.87475791 C59.7495158,3.63008393 57.1194319,1 53.8747579,1 C50.6300839,1 48,3.63008393 48,6.87475791 C48,10.1194319 50.6300839,12.7495158 53.8747579,12.7495158 C55.3298903,12.7495158 56.6675274,12.2162686 57.6978696,11.3305358 L57.941898,11.5836023 L57.941898,12.2976114 L60.6533247,15 L62,13.6533247 L59.2976114,10.941898 L58.5836023,10.941898 Z M53.8747579,10.941898 C51.6242737,10.941898 49.8076178,9.12524209 49.8076178,6.87475791 C49.8076178,4.62427372 51.6242737,2.80761782 53.8747579,2.80761782 C56.1252421,2.80761782 57.941898,4.62427372 57.941898,6.87475791 C57.941898,9.12524209 56.1252421,10.941898 53.8747579,10.941898 L53.8747579,10.941898 Z" id="Shape-Copy" sketch:type="MSShapeGroup"></path>
        </g>
    </g>
</svg>
